<svg xmlns="http://www.w3.org/2000/svg" viewBox="0 0 256 163.37"><defs><style>.cls-1{opacity:0.8;}.cls-2{fill:#ffd0cc;}.cls-3{fill:#fff3f3;}</style></defs><g id="Layer_2" data-name="Layer 2"><g id="Layer_1-2" data-name="Layer 1"><g class="cls-1"><path class="cls-2" d="M82.64,163.37a58.49,58.49,0,0,1-9.44-.74L13.78,153c-8.23-1.33-11.54-5-12.87-7.86a10.14,10.14,0,0,1,.65-9.58L33.09,82.85c4.12-6.88,18.15-7.74,24.3-7.08l4.38.48L60.43,88.71l-4.38-.47c-5.32-.58-10.83.65-12.54,1.6l-30,50.25a16,16,0,0,0,2.32.55l59.43,9.62a50.55,50.55,0,0,0,15.19,0L158,140a63.06,63.06,0,0,1,18.15,0l55,7.89c5.72.82,9.63.07,11.54-.66l-32.2-53.83a19.63,19.63,0,0,0-7-1.74l-11.61-1.16L193.17,78l11.61,1.15c4.7.47,13.06,2,16.2,7.28l33.38,55.82a10.44,10.44,0,0,1-.08,11.36c-3.83,5.76-13.37,8.3-24.88,6.66l-55-7.89a50.25,50.25,0,0,0-14.49,0L92.28,162.64A63.85,63.85,0,0,1,82.64,163.37Z"/></g><path class="cls-3" d="M94.27,128.66A6.27,6.27,0,0,1,89.83,118L111,96.82A6.23,6.23,0,0,1,115.41,95h40.71a41.23,41.23,0,0,0,0-82.45H98.92a41.23,41.23,0,0,0-13.46,80.2,6.27,6.27,0,0,1-4.09,11.85A53.76,53.76,0,0,1,98.92,0h57.2a53.76,53.76,0,0,1,0,107.52H118l-19.3,19.3A6.24,6.24,0,0,1,94.27,128.66Z"/><circle class="cls-3" cx="158.23" cy="54.3" r="9.78"/><circle class="cls-3" cx="128.31" cy="54.3" r="9.78"/><circle class="cls-3" cx="98.39" cy="54.3" r="9.78"/></g></g></svg>